<svg xmlns="http://www.w3.org/2000/svg" xmlns:xlink="http://www.w3.org/1999/xlink" viewBox="0 0 475.36 475.67"><defs><style>.a{fill:none;}.b{clip-path:url(#a);}.c{clip-path:url(#b);}.d{fill:#fff;}</style><clipPath id="a" transform="translate(0.96 0.16)"><rect class="a" x="-0.98" y="0.01" width="480.98" height="482.99"/></clipPath><clipPath id="b" transform="translate(0.96 0.16)"><rect class="a" x="269.56" y="329.86" width="127.47" height="107.72"/></clipPath></defs><title>default</title><g class="b"><path d="M18.07,475.51H455.3a19.3,19.3,0,0,0,15-7,17.93,17.93,0,0,0,4-13.63C464.17,372.6,416.93,300.63,347.63,262c-61.16,65-160.41,65.07-221.68.22l-0.21-.22C56.46,300.63,9.25,372.6-.82,454.91a17.85,17.85,0,0,0,4,13.63,19.35,19.35,0,0,0,14.94,7h0Z" transform="translate(0.96 0.16)"/></g><path d="M138.15,243.65c2.6,2.86,5.24,5.55,7.94,8.15,51.45,49.24,129.68,49.24,181.13,0a113.07,113.07,0,0,0,7.94-8.15c2.49-2.86,5-5.71,7.32-8.77,47.24-62,38.15-152.87-20.31-203S178-8.54,130.76,53.46c-40.33,52.92-40.33,128.51,0,181.42,2.29,3.06,4.76,5.92,7.32,8.77h0.08Z" transform="translate(0.96 0.16)"/><g class="c"><path class="d" d="M341.85,421a2.14,2.14,0,0,0-.08-2.34l-17-19.64a8.57,8.57,0,0,1,.42-11.61l0.31-.29,17.3-15.38a2.06,2.06,0,0,0,.35-2.26S334.33,353.08,330.8,348c-4-5.72-14-18.18-28.38-18.18-17.55,0-31.89,15.35-32.82,33.95-0.52,10.5,2.67,18.51,7.16,25.73,7.82,12.59,38.63,40.61,51.92,47.65,0.29,0.15.92,0.27,1.84-.91Z" transform="translate(0.96 0.16)"/><path class="d" d="M396.93,363.81c-0.94-18.51-15.27-33.95-32.82-33.95-11.51,0-20.22,9.07-25.52,15.15a1.76,1.76,0,0,0,0,2.38l0.06,0.06,10.48,18.18a9.81,9.81,0,0,1-1.84,11.88L330,392.89a0.77,0.77,0,0,0-.06,1L330,394l17,19.64a9.94,9.94,0,0,1,.43,12l-7.21,9.73c-0.6.72-.35,0.76-0.13,0.62,14.21-8.53,42.19-34.4,49.68-46.49,4.51-7.27,7.7-15.23,7.16-25.73h0Z" transform="translate(0.96 0.16)"/></g></svg>